<mxfile host="app.diagrams.net" modified="2024-02-06T19:34:59.620Z" agent="Mozilla/5.0 (X11; Ubuntu; Linux x86_64; rv:109.0) Gecko/20100101 Firefox/112.0" etag="0MBoYu1Ns0LZDYNxsUGr" version="23.1.1" type="device">
  <diagram id="C5RBs43oDa-KdzZeNtuy" name="Page-1">
    <mxGraphModel dx="989" dy="547" grid="1" gridSize="10" guides="1" tooltips="1" connect="1" arrows="1" fold="1" page="1" pageScale="1" pageWidth="1169" pageHeight="827" math="0" shadow="0">
      <root>
        <mxCell id="WIyWlLk6GJQsqaUBKTNV-0" />
        <mxCell id="WIyWlLk6GJQsqaUBKTNV-1" parent="WIyWlLk6GJQsqaUBKTNV-0" />
        <mxCell id="WIyWlLk6GJQsqaUBKTNV-3" value="Get newest video frame" style="rounded=1;whiteSpace=wrap;html=1;fontSize=12;glass=0;strokeWidth=2;shadow=0;strokeColor=#8c52ff;" parent="WIyWlLk6GJQsqaUBKTNV-1" vertex="1">
          <mxGeometry x="60" y="60" width="120" height="40" as="geometry" />
        </mxCell>
        <mxCell id="E4I7RhbqZSsagmwxLHqh-1" value="" style="rounded=0;html=1;jettySize=auto;orthogonalLoop=1;fontSize=11;endArrow=block;endFill=0;endSize=8;strokeWidth=2;shadow=0;labelBackgroundColor=none;edgeStyle=orthogonalEdgeStyle;strokeColor=#8c52ff;" edge="1" parent="WIyWlLk6GJQsqaUBKTNV-1" source="WIyWlLk6GJQsqaUBKTNV-3" target="E4I7RhbqZSsagmwxLHqh-2">
          <mxGeometry relative="1" as="geometry">
            <mxPoint x="120" y="130" as="sourcePoint" />
            <mxPoint x="120" y="400" as="targetPoint" />
          </mxGeometry>
        </mxCell>
        <mxCell id="E4I7RhbqZSsagmwxLHqh-2" value="Process via MediaPipe" style="rounded=1;whiteSpace=wrap;html=1;strokeWidth=2;strokeColor=#8c52ff;" vertex="1" parent="WIyWlLk6GJQsqaUBKTNV-1">
          <mxGeometry x="60" y="150" width="120" height="60" as="geometry" />
        </mxCell>
        <mxCell id="E4I7RhbqZSsagmwxLHqh-8" style="edgeStyle=orthogonalEdgeStyle;rounded=0;orthogonalLoop=1;jettySize=auto;html=1;entryX=0.5;entryY=0;entryDx=0;entryDy=0;strokeWidth=2;strokeColor=#8c52ff;" edge="1" parent="WIyWlLk6GJQsqaUBKTNV-1" source="E4I7RhbqZSsagmwxLHqh-4" target="E4I7RhbqZSsagmwxLHqh-5">
          <mxGeometry relative="1" as="geometry" />
        </mxCell>
        <mxCell id="E4I7RhbqZSsagmwxLHqh-4" value="Run classifier" style="rounded=1;whiteSpace=wrap;html=1;strokeWidth=2;strokeColor=#8c52ff;" vertex="1" parent="WIyWlLk6GJQsqaUBKTNV-1">
          <mxGeometry x="60" y="350" width="120" height="60" as="geometry" />
        </mxCell>
        <mxCell id="E4I7RhbqZSsagmwxLHqh-9" style="edgeStyle=orthogonalEdgeStyle;rounded=0;orthogonalLoop=1;jettySize=auto;html=1;entryX=0.5;entryY=0;entryDx=0;entryDy=0;strokeWidth=2;strokeColor=#8c52ff;" edge="1" parent="WIyWlLk6GJQsqaUBKTNV-1" source="E4I7RhbqZSsagmwxLHqh-5" target="WIyWlLk6GJQsqaUBKTNV-3">
          <mxGeometry relative="1" as="geometry">
            <Array as="points">
              <mxPoint x="200" y="490" />
              <mxPoint x="200" y="40" />
              <mxPoint x="120" y="40" />
            </Array>
          </mxGeometry>
        </mxCell>
        <mxCell id="E4I7RhbqZSsagmwxLHqh-5" value="Update LED FSM" style="rounded=1;whiteSpace=wrap;html=1;strokeWidth=2;strokeColor=#8c52ff;" vertex="1" parent="WIyWlLk6GJQsqaUBKTNV-1">
          <mxGeometry x="60" y="460" width="120" height="60" as="geometry" />
        </mxCell>
        <mxCell id="E4I7RhbqZSsagmwxLHqh-6" value="" style="rounded=0;html=1;jettySize=auto;orthogonalLoop=1;fontSize=11;endArrow=block;endFill=0;endSize=8;strokeWidth=2;shadow=0;labelBackgroundColor=none;edgeStyle=orthogonalEdgeStyle;strokeColor=#8c52ff;" edge="1" parent="WIyWlLk6GJQsqaUBKTNV-1" source="E4I7RhbqZSsagmwxLHqh-2" target="E4I7RhbqZSsagmwxLHqh-3">
          <mxGeometry relative="1" as="geometry">
            <mxPoint x="120" y="220" as="sourcePoint" />
            <mxPoint x="120" y="280" as="targetPoint" />
          </mxGeometry>
        </mxCell>
        <mxCell id="E4I7RhbqZSsagmwxLHqh-7" style="edgeStyle=orthogonalEdgeStyle;rounded=0;orthogonalLoop=1;jettySize=auto;html=1;entryX=0.5;entryY=0;entryDx=0;entryDy=0;strokeWidth=2;strokeColor=#8c52ff;" edge="1" parent="WIyWlLk6GJQsqaUBKTNV-1" source="E4I7RhbqZSsagmwxLHqh-3" target="E4I7RhbqZSsagmwxLHqh-4">
          <mxGeometry relative="1" as="geometry" />
        </mxCell>
        <mxCell id="E4I7RhbqZSsagmwxLHqh-3" value="Extract discriminators" style="rounded=1;whiteSpace=wrap;html=1;strokeWidth=2;strokeColor=#8c52ff;" vertex="1" parent="WIyWlLk6GJQsqaUBKTNV-1">
          <mxGeometry x="60" y="260" width="120" height="40" as="geometry" />
        </mxCell>
        <mxCell id="E4I7RhbqZSsagmwxLHqh-10" value="Idle" style="ellipse;whiteSpace=wrap;html=1;strokeColor=#8C52FF;strokeWidth=2;" vertex="1" parent="WIyWlLk6GJQsqaUBKTNV-1">
          <mxGeometry x="560" y="50" width="120" height="80" as="geometry" />
        </mxCell>
        <mxCell id="E4I7RhbqZSsagmwxLHqh-25" value="&lt;div&gt;Detections stable for 2.5 seconds&lt;/div&gt;&lt;div&gt;&quot;Open Palm&quot; gesture&lt;br&gt;&lt;/div&gt;" style="edgeStyle=orthogonalEdgeStyle;rounded=0;orthogonalLoop=1;jettySize=auto;html=1;strokeWidth=2;strokeColor=#8C52FF;" edge="1" parent="WIyWlLk6GJQsqaUBKTNV-1" source="E4I7RhbqZSsagmwxLHqh-11" target="E4I7RhbqZSsagmwxLHqh-13">
          <mxGeometry relative="1" as="geometry" />
        </mxCell>
        <mxCell id="E4I7RhbqZSsagmwxLHqh-11" value="Gesture detected" style="ellipse;whiteSpace=wrap;html=1;strokeWidth=2;strokeColor=#8C52FF;" vertex="1" parent="WIyWlLk6GJQsqaUBKTNV-1">
          <mxGeometry x="560" y="260" width="120" height="80" as="geometry" />
        </mxCell>
        <mxCell id="E4I7RhbqZSsagmwxLHqh-31" value="1 second delay" style="edgeStyle=orthogonalEdgeStyle;rounded=0;orthogonalLoop=1;jettySize=auto;html=1;entryX=1;entryY=0.5;entryDx=0;entryDy=0;exitX=0.5;exitY=0;exitDx=0;exitDy=0;strokeWidth=2;strokeColor=#8C52FF;" edge="1" parent="WIyWlLk6GJQsqaUBKTNV-1" source="E4I7RhbqZSsagmwxLHqh-12" target="E4I7RhbqZSsagmwxLHqh-10">
          <mxGeometry x="0.1554" relative="1" as="geometry">
            <Array as="points">
              <mxPoint x="960" y="90" />
            </Array>
            <mxPoint as="offset" />
          </mxGeometry>
        </mxCell>
        <mxCell id="E4I7RhbqZSsagmwxLHqh-12" value="Gesture confirmed" style="ellipse;whiteSpace=wrap;html=1;strokeWidth=2;strokeColor=#8C52FF;" vertex="1" parent="WIyWlLk6GJQsqaUBKTNV-1">
          <mxGeometry x="900" y="260" width="120" height="80" as="geometry" />
        </mxCell>
        <mxCell id="E4I7RhbqZSsagmwxLHqh-32" value="Word finished scrolling" style="edgeStyle=orthogonalEdgeStyle;rounded=0;orthogonalLoop=1;jettySize=auto;html=1;entryX=0;entryY=0.5;entryDx=0;entryDy=0;exitX=0.5;exitY=0;exitDx=0;exitDy=0;strokeWidth=2;strokeColor=#8C52FF;" edge="1" parent="WIyWlLk6GJQsqaUBKTNV-1" source="E4I7RhbqZSsagmwxLHqh-13" target="E4I7RhbqZSsagmwxLHqh-10">
          <mxGeometry x="0.238" relative="1" as="geometry">
            <Array as="points">
              <mxPoint x="290" y="90" />
            </Array>
            <mxPoint as="offset" />
          </mxGeometry>
        </mxCell>
        <mxCell id="E4I7RhbqZSsagmwxLHqh-13" value="Word confirmed" style="ellipse;whiteSpace=wrap;html=1;strokeWidth=2;strokeColor=#8C52FF;" vertex="1" parent="WIyWlLk6GJQsqaUBKTNV-1">
          <mxGeometry x="230" y="260" width="120" height="80" as="geometry" />
        </mxCell>
        <mxCell id="E4I7RhbqZSsagmwxLHqh-26" value="&lt;div&gt;Detections stable for 2.5 seconds&lt;/div&gt;&lt;div&gt;Any gesture&lt;br&gt;&lt;/div&gt;" style="endArrow=classic;html=1;rounded=0;strokeWidth=2;strokeColor=#8C52FF;" edge="1" parent="WIyWlLk6GJQsqaUBKTNV-1" source="E4I7RhbqZSsagmwxLHqh-11" target="E4I7RhbqZSsagmwxLHqh-12">
          <mxGeometry width="50" height="50" relative="1" as="geometry">
            <mxPoint x="500" y="350" as="sourcePoint" />
            <mxPoint x="550" y="300" as="targetPoint" />
            <mxPoint as="offset" />
          </mxGeometry>
        </mxCell>
        <mxCell id="E4I7RhbqZSsagmwxLHqh-28" value="Detections stable for 7 iterations" style="curved=1;endArrow=classic;html=1;rounded=0;exitX=0;exitY=1;exitDx=0;exitDy=0;entryX=0;entryY=0;entryDx=0;entryDy=0;strokeWidth=2;strokeColor=#8C52FF;" edge="1" parent="WIyWlLk6GJQsqaUBKTNV-1" source="E4I7RhbqZSsagmwxLHqh-10" target="E4I7RhbqZSsagmwxLHqh-11">
          <mxGeometry width="50" height="50" relative="1" as="geometry">
            <mxPoint x="500" y="350" as="sourcePoint" />
            <mxPoint x="550" y="300" as="targetPoint" />
            <Array as="points">
              <mxPoint x="500" y="180" />
            </Array>
          </mxGeometry>
        </mxCell>
        <mxCell id="E4I7RhbqZSsagmwxLHqh-29" value="Foreign gesture detected" style="curved=1;endArrow=classic;html=1;rounded=0;exitX=1;exitY=0;exitDx=0;exitDy=0;entryX=1;entryY=1;entryDx=0;entryDy=0;strokeWidth=2;strokeColor=#8C52FF;" edge="1" parent="WIyWlLk6GJQsqaUBKTNV-1" source="E4I7RhbqZSsagmwxLHqh-11" target="E4I7RhbqZSsagmwxLHqh-10">
          <mxGeometry width="50" height="50" relative="1" as="geometry">
            <mxPoint x="500" y="350" as="sourcePoint" />
            <mxPoint x="550" y="300" as="targetPoint" />
            <Array as="points">
              <mxPoint x="700" y="220" />
              <mxPoint x="710" y="160" />
            </Array>
          </mxGeometry>
        </mxCell>
        <mxCell id="E4I7RhbqZSsagmwxLHqh-34" value="" style="whiteSpace=wrap;html=1;aspect=fixed;fillStyle=solid;fillColor=#FF0000;strokeColor=none;strokeWidth=2;" vertex="1" parent="WIyWlLk6GJQsqaUBKTNV-1">
          <mxGeometry x="630" y="60" width="20" height="20" as="geometry" />
        </mxCell>
        <mxCell id="E4I7RhbqZSsagmwxLHqh-35" value="" style="whiteSpace=wrap;html=1;aspect=fixed;fillStyle=solid;fillColor=#0000FF;strokeColor=none;strokeWidth=2;" vertex="1" parent="WIyWlLk6GJQsqaUBKTNV-1">
          <mxGeometry x="630" y="270" width="20" height="20" as="geometry" />
        </mxCell>
        <mxCell id="E4I7RhbqZSsagmwxLHqh-36" value="" style="whiteSpace=wrap;html=1;aspect=fixed;fillStyle=solid;fillColor=#33FF33;strokeColor=none;strokeWidth=2;" vertex="1" parent="WIyWlLk6GJQsqaUBKTNV-1">
          <mxGeometry x="970" y="270" width="20" height="20" as="geometry" />
        </mxCell>
        <mxCell id="E4I7RhbqZSsagmwxLHqh-37" value="" style="whiteSpace=wrap;html=1;aspect=fixed;fillStyle=solid;fillColor=#FFFF00;strokeColor=none;strokeWidth=2;" vertex="1" parent="WIyWlLk6GJQsqaUBKTNV-1">
          <mxGeometry x="300" y="270" width="20" height="20" as="geometry" />
        </mxCell>
        <mxCell id="E4I7RhbqZSsagmwxLHqh-41" value="" style="rounded=0;whiteSpace=wrap;html=1;strokeColor=none;fillColor=#FF00FF;strokeWidth=2;" vertex="1" parent="WIyWlLk6GJQsqaUBKTNV-1">
          <mxGeometry x="630" y="60" width="10" height="20" as="geometry" />
        </mxCell>
        <mxCell id="E4I7RhbqZSsagmwxLHqh-43" value="&quot;A&quot;" style="shape=parallelogram;perimeter=parallelogramPerimeter;whiteSpace=wrap;html=1;fixedSize=1;strokeWidth=2;strokeColor=#8C52FF;" vertex="1" parent="WIyWlLk6GJQsqaUBKTNV-1">
          <mxGeometry x="360" y="430" width="100" height="50" as="geometry" />
        </mxCell>
        <mxCell id="E4I7RhbqZSsagmwxLHqh-44" value="&quot;A&quot;" style="shape=parallelogram;perimeter=parallelogramPerimeter;whiteSpace=wrap;html=1;fixedSize=1;strokeWidth=2;strokeColor=#8C52FF;" vertex="1" parent="WIyWlLk6GJQsqaUBKTNV-1">
          <mxGeometry x="440" y="430" width="100" height="50" as="geometry" />
        </mxCell>
        <mxCell id="E4I7RhbqZSsagmwxLHqh-45" value="&quot;A&quot;" style="shape=parallelogram;perimeter=parallelogramPerimeter;whiteSpace=wrap;html=1;fixedSize=1;strokeWidth=2;strokeColor=#8C52FF;" vertex="1" parent="WIyWlLk6GJQsqaUBKTNV-1">
          <mxGeometry x="520" y="430" width="100" height="50" as="geometry" />
        </mxCell>
        <mxCell id="E4I7RhbqZSsagmwxLHqh-46" value="&lt;div&gt;&quot;Open&lt;/div&gt;&lt;div&gt;Palm&quot;&lt;/div&gt;" style="shape=parallelogram;perimeter=parallelogramPerimeter;whiteSpace=wrap;html=1;fixedSize=1;strokeWidth=2;strokeColor=#8C52FF;" vertex="1" parent="WIyWlLk6GJQsqaUBKTNV-1">
          <mxGeometry x="600" y="430" width="100" height="50" as="geometry" />
        </mxCell>
        <mxCell id="E4I7RhbqZSsagmwxLHqh-47" value="&lt;div&gt;&quot;Open&lt;/div&gt;&lt;div&gt;Palm&quot;&lt;/div&gt;" style="shape=parallelogram;perimeter=parallelogramPerimeter;whiteSpace=wrap;html=1;fixedSize=1;strokeWidth=2;strokeColor=#8C52FF;" vertex="1" parent="WIyWlLk6GJQsqaUBKTNV-1">
          <mxGeometry x="680" y="430" width="100" height="50" as="geometry" />
        </mxCell>
        <mxCell id="E4I7RhbqZSsagmwxLHqh-48" value="&quot;A&quot;" style="shape=parallelogram;perimeter=parallelogramPerimeter;whiteSpace=wrap;html=1;fixedSize=1;strokeWidth=2;strokeColor=#8C52FF;" vertex="1" parent="WIyWlLk6GJQsqaUBKTNV-1">
          <mxGeometry x="760" y="430" width="100" height="50" as="geometry" />
        </mxCell>
        <mxCell id="E4I7RhbqZSsagmwxLHqh-49" value="&quot;A&quot;" style="shape=parallelogram;perimeter=parallelogramPerimeter;whiteSpace=wrap;html=1;fixedSize=1;strokeWidth=2;strokeColor=#8C52FF;" vertex="1" parent="WIyWlLk6GJQsqaUBKTNV-1">
          <mxGeometry x="840" y="430" width="100" height="50" as="geometry" />
        </mxCell>
        <mxCell id="E4I7RhbqZSsagmwxLHqh-51" value="Latest detection" style="shape=singleArrow;whiteSpace=wrap;html=1;arrowWidth=0.46022988505746826;arrowSize=0.38310344827586107;strokeWidth=2;strokeColor=#8C52FF;" vertex="1" parent="WIyWlLk6GJQsqaUBKTNV-1">
          <mxGeometry x="290" y="423.75" width="80" height="62.5" as="geometry" />
        </mxCell>
        <mxCell id="E4I7RhbqZSsagmwxLHqh-53" value="" style="shape=singleArrow;whiteSpace=wrap;html=1;strokeWidth=2;strokeColor=#8C52FF;" vertex="1" parent="WIyWlLk6GJQsqaUBKTNV-1">
          <mxGeometry x="430" y="445" width="30" height="20" as="geometry" />
        </mxCell>
        <mxCell id="E4I7RhbqZSsagmwxLHqh-55" value="" style="shape=singleArrow;whiteSpace=wrap;html=1;strokeWidth=2;strokeColor=#8C52FF;" vertex="1" parent="WIyWlLk6GJQsqaUBKTNV-1">
          <mxGeometry x="760" y="445" width="30" height="20" as="geometry" />
        </mxCell>
        <mxCell id="E4I7RhbqZSsagmwxLHqh-56" value="" style="shape=singleArrow;whiteSpace=wrap;html=1;strokeWidth=2;strokeColor=#8C52FF;" vertex="1" parent="WIyWlLk6GJQsqaUBKTNV-1">
          <mxGeometry x="680" y="445" width="30" height="20" as="geometry" />
        </mxCell>
        <mxCell id="E4I7RhbqZSsagmwxLHqh-57" value="" style="shape=singleArrow;whiteSpace=wrap;html=1;strokeWidth=2;strokeColor=#8C52FF;" vertex="1" parent="WIyWlLk6GJQsqaUBKTNV-1">
          <mxGeometry x="590" y="445" width="30" height="20" as="geometry" />
        </mxCell>
        <mxCell id="E4I7RhbqZSsagmwxLHqh-58" value="" style="shape=singleArrow;whiteSpace=wrap;html=1;strokeWidth=2;strokeColor=#8C52FF;" vertex="1" parent="WIyWlLk6GJQsqaUBKTNV-1">
          <mxGeometry x="520" y="445" width="30" height="20" as="geometry" />
        </mxCell>
        <mxCell id="E4I7RhbqZSsagmwxLHqh-59" value="" style="shape=singleArrow;whiteSpace=wrap;html=1;strokeWidth=2;strokeColor=#8C52FF;" vertex="1" parent="WIyWlLk6GJQsqaUBKTNV-1">
          <mxGeometry x="830" y="445" width="30" height="20" as="geometry" />
        </mxCell>
        <mxCell id="E4I7RhbqZSsagmwxLHqh-61" value="Detection Queue" style="text;html=1;strokeColor=none;fillColor=none;align=center;verticalAlign=middle;whiteSpace=wrap;rounded=0;" vertex="1" parent="WIyWlLk6GJQsqaUBKTNV-1">
          <mxGeometry x="580" y="400" width="110" height="30" as="geometry" />
        </mxCell>
      </root>
    </mxGraphModel>
  </diagram>
</mxfile>
